<svg t="1686049518329" class="icon" viewBox="0 0 1024 1024" version="1.1" xmlns="http://www.w3.org/2000/svg" p-id="1368" width="64" height="64"><path d="M936.621693 171.139493C755.907466 158.86965 587.534007 47.306275 531.362239 6.312232a33.972572 33.972572 0 0 0-39.433717 0c-56.739161 40.994043-226.956642 152.557418-404.904835 164.330793A33.050561 33.050561 0 0 0 56.171769 203.409891v270.787643c0 427.458651 383.414877 541.07882 455.615459 549.802466 78.016346-7.092395 455.544535-129.010666 456.041003-549.305998V203.906358a33.050561 33.050561 0 0 0-31.206538-32.766865z m-424.834465 585.264441c-91.208201 0-189.296024-24.326915-189.296024-77.448954a188.374013 188.374013 0 0 1 189.296024-187.381078h-0.638315a112.130766 112.130766 0 0 1 0.638315-224.190608l0.567392-0.638315a112.414462 112.414462 0 1 1 0 224.828923 188.657709 188.657709 0 0 1 188.657709 187.381078c0 53.122039-98.087824 77.448954-189.225101 77.448954z" p-id="1369"></path></svg>