<svg t="1685931025542" class="icon" viewBox="0 0 1024 1024" version="1.1" xmlns="http://www.w3.org/2000/svg" p-id="1338" width="64" height="64"><path d="M508.1 64h14c21.1 0.6 42.3 2.4 63 7 13.9 3.3 27.5 7.8 41.3 11.7 87.1 25.6 174.2 51.2 261.3 76.9 13.3 4.1 26.8 9.7 36.5 20 5.6 5.8 9.2 13.5 10 21.6v5.5c-0.9 8.1-4.5 15.7-10.2 21.5-9.4 9.9-22.4 15.4-35.2 19.4-46.9 13.9-93.9 27.6-140.9 41.5v75.3c0.7 27.9-2.8 56.1-11.7 82.7-17.2 52.4-53.8 98.1-101.2 126.5-27.3 16.4-57.9 27.1-89.5 31.2-38.5 5-78.3 0.4-114.5-13.7-51.3-19.7-94.9-58.3-120.9-106.7-18-33.2-27.6-70.8-27.8-108.5v-86.8l-51-15v85.4c0.1 6.3-2.3 12.7-6.9 17.1-5.4 5.6-13.7 8-21.3 6.4-10.2-1.9-18.5-11.4-18.5-21.8V260.5c-14-4.2-28-8.2-42-12.4-10.2-3.1-20.3-7.1-29.1-13.4-6.3-4.5-11.8-10.5-14.9-17.7-3.4-7.8-3.6-17-0.6-25 2.9-7.8 8.6-14.2 15.2-18.9 10.4-7.5 22.6-11.7 34.8-15.2 94-27.6 188-55.3 282-82.9 25.3-7.7 51.8-10.3 78.1-11zM202 414.1c7.4-1.8 15.8 0 21.5 5.3 4.2 4.1 8.2 8.2 12.4 12.3 4.7 4.6 7.3 11.2 6.9 17.8-0.1 6.8-3.8 13.1-8.8 17.5-5.2 4.7-9.4 10.7-15.7 13.9-7.9 4-18 2.9-24.9-2.6-4.1-3.5-7.7-7.6-11.6-11.3-3.1-3-6-6.4-7.4-10.5-3-8-1.2-17.6 4.6-23.8 3.6-3.8 7.4-7.4 11-11.1 3.2-3.5 7.3-6.3 12-7.5z" p-id="1339"></path><path d="M300.2 585.9c6.7-1.7 14.2-0.4 19.8 3.8 25.5 18.9 53.5 34.4 83.2 45.5 36.2 13.6 74.9 20.6 113.6 20.3 61.1-0.1 121.7-18.7 173-51.7 7.1-4.5 14-9.4 20.9-14.4 5.9-4.2 13.7-5.4 20.6-3.2 5.2 1.5 9.2 5.4 13.5 8.5 55.5 42.9 99.4 100.2 128.3 164 23.1 50.8 36.9 105.8 41.1 161.5 0.4 4 0.5 8.1-0.8 12-2.8 9-11.5 15.8-20.9 16.1H141.1c-4.5 0.2-9.1-0.5-13-2.8-7.9-4.1-12.9-13.2-12.1-22 3.8-56.8 17.7-113 41.3-164.8 29-63.9 73-121.3 128.7-164.3 4.3-3.3 8.6-7.3 14.2-8.5M463 781.6c-9.3 2.2-16.7 10.5-17.6 20-1.3 9.9 4.8 19.9 13.9 23.8 5.9 2.7 12.6 1.8 18.9 2h83.5c7.9 0 15.5-4.4 19.6-11.1 4.9-7.6 4.6-18-0.7-25.4-4.2-6.1-11.4-10-18.9-10h-88.4c-3.4 0-6.9-0.2-10.3 0.7z" p-id="1340"></path></svg>