<svg t="1688018350479" class="icon" viewBox="0 0 1024 1024" version="1.1" xmlns="http://www.w3.org/2000/svg" p-id="1669" width="64" height="64"><path d="M832 928H343.2c-52 0-93.6-41.6-93.6-93.6V345.6c0-52 41.6-93.6 93.6-93.6h487.2c52 0 93.6 41.6 93.6 93.6l1.6 488.8c0 52-41.6 93.6-93.6 93.6zM534.4 496.8v300.8c0 22.4 18.4 40.8 40.8 40.8s40-17.6 40.8-40V499.2l74.4 72c16 15.2 41.6 15.2 57.6 0v-0.8c15.2-15.2 15.2-39.2 0-54.4l-0.8-0.8-143.2-137.6-0.8-0.8c-0.8 0-0.8-0.8-0.8-0.8-0.8-0.8-2.4-1.6-3.2-3.2-7.2-6.4-16.8-10.4-27.2-10.4-10.4 0-20.8 4-28 11.2L402.4 515.2c-16 15.2-16 40.8-0.8 56.8s40.8 16 56.8 0.8l0.8-0.8 75.2-75.2zM216.8 772h-29.6c-52 0-93.6-41.6-93.6-93.6V189.6C93.6 137.6 136 96 188 96h487.2C726.4 96 768 137.6 768 189.6v29.6h-62.4v-7.2c0-29.6-24-53.6-54.4-53.6h-440c-29.6 0-53.6 24-53.6 53.6v441.6c0 29.6 24 53.6 53.6 53.6h4.8l0.8 64.8z" p-id="1670"></path></svg>