<svg t="1685690367572" class="icon" viewBox="0 0 1024 1024" version="1.1" xmlns="http://www.w3.org/2000/svg" p-id="2138" id="mx_n_1685690367573" width="64" height="64"><path d="M963.830777 1024H60.138504C26.938269 1024 0 988.67306 0 945.233132s26.938269-78.766868 60.138504-78.766868h903.692273c33.200235 0 60.138504 35.32694 60.138504 78.766868 0 43.597461-26.938269 78.766868-60.138504 78.766868zM692.360768 483.265453a277.101841 277.101841 0 0 1-28.159156 19.455416c-23.984511 15.123239-38.201931 40.958771-37.808096 68.448408 0 45.684783 38.713916 82.587061 86.328487 82.587061h169.073082a144.812886 144.812886 0 0 1 100.860974 40.131719A132.682789 132.682789 0 0 1 1023.969281 787.699397H0v-0.078767c0-74.040856 62.61966-133.943059 139.889957-133.864292h172.775125c47.653955 0 86.24972-37.020428 86.24972-82.587061a79.869604 79.869604 0 0 0-38.044397-68.448408C263.67209 443.882019 212.98561 334.908057 232.36226 226.44608 251.778293 117.865953 337.437261 31.222399 449.561898 6.844053c84.359315-18.392064 172.972042 0.945202 240.632781 52.616268 67.621356 51.710449 107.00479 130.122866 106.886639 213.024994 0.11815 81.523708-38.083781 158.794005-104.051032 210.504454a221.886266 221.886266 0 0 1-0.669518 0.275684z" p-id="2139"></path></svg>