<svg t="1685687663312" class="icon" viewBox="0 0 1149 1024" version="1.1" xmlns="http://www.w3.org/2000/svg" p-id="1039" width="64" height="64"><path d="M487.789714 1016.685714L61.293714 824.100571a78.409143 78.409143 0 0 1 0-142.848l15.433143-7.314285 411.062857 185.929143a78.409143 78.409143 0 0 0 64.585143 0l124.342857-56.393143a179.419429 179.419429 0 0 0 84.992 118.345143L552.374857 1016.685714a78.336 78.336 0 0 1-64.585143 0z m519.314286-190.171428a156.745143 156.745143 0 1 1 55.442286-55.442286l86.601143 86.601143-55.442286 55.442286z m-135.460571-190.171429a78.409143 78.409143 0 1 0 55.442285-22.966857 78.409143 78.409143 0 0 0-55.442285 22.966857z m-399.067429 134.436572L46.08 577.828571a78.409143 78.409143 0 0 1 0-142.848l19.748571-8.850285 415.232 187.904a78.409143 78.409143 0 0 0 64.585143 0l200.411429-90.697143a382.317714 382.317714 0 0 0-74.532572 186.660571l-134.363428 60.781715a78.409143 78.409143 0 0 1-64.585143 0z m8.484571-235.154286L54.564571 342.747429a78.409143 78.409143 0 0 1 0-142.848L481.060571 7.314286a78.409143 78.409143 0 0 1 64.585143 0l426.496 192.950857a78.409143 78.409143 0 0 1 0 142.848L545.645714 535.625143a78.409143 78.409143 0 0 1-64.585143 0z" p-id="1040"></path></svg>