<svg t="1685687938770" class="icon" viewBox="0 0 1024 1024" version="1.1" xmlns="http://www.w3.org/2000/svg" p-id="1099" width="64" height="64"><path d="M895.024762 161.889524L577.950476 14.019048A145.005714 145.005714 0 0 0 512.609524 1.219048a162.620952 162.620952 0 0 0-65.340953 12.8l-316.952381 147.870476C93.988571 178.224762 64.914286 223.634286 64.914286 262.095238v372.662857c0 38.4 20.540952 94.354286 45.958095 124.586667 0 0 208.152381 248.015238 401.737143 248.015238a296.655238 296.655238 0 0 0 106.544762-22.00381 258.133333 258.133333 0 0 1 25.843809-411.001904h-0.365714C611.108571 536.868571 563.321905 512 512.609524 512c-95.878095 0-180.419048 89.051429-180.419048 184.929524 0 17.249524-11.032381 31.207619-28.281905 31.207619s-27.489524-13.958095-27.489523-31.207619A236.129524 236.129524 0 0 1 408.380952 484.87619a163.900952 163.900952 0 1 1 209.066667 0 237.04381 237.04381 0 0 1 79.238095 63.20762 258.255238 258.255238 0 0 1 264.411429 49.493333V262.095238c-0.731429-38.460952-29.805714-83.870476-66.072381-100.205714z" p-id="1100"></path><path d="M512.609524 247.466667a110.019048 110.019048 0 0 0-9.264762 219.428571q9.264762-0.365714 18.285714 0a110.019048 110.019048 0 0 0-9.264762-219.428571zM992.24381 977.67619l-39.740953-39.558095a12.860952 12.860952 0 0 0-1.401905-1.28 217.782857 217.782857 0 1 0-40.045714 35.535238 31.024762 31.024762 0 0 0 3.230476 3.961905l39.740953 39.558095a27.062857 27.062857 0 0 0 38.217143-38.217143z m-58.08762-218.63619a22.918095 22.918095 0 0 1-29.013333-14.445714 112.213333 112.213333 0 0 0-106.666667-76.860953 22.918095 22.918095 0 1 1 0-45.83619 157.988571 157.988571 0 0 1 150.00381 108.190476 22.918095 22.918095 0 0 1-14.32381 28.952381z" p-id="1101"></path></svg>