<svg t="1685688017087" class="icon" viewBox="0 0 1024 1024" version="1.1" xmlns="http://www.w3.org/2000/svg" p-id="1129" width="64" height="64"><path d="M10.81664 550.72h78.848a10.24 10.24 0 0 1 7.616 3.52 12.672 12.672 0 0 1 3.136 8.384v12.992c0 6.528-4.8 11.776-10.752 11.776H10.81664C4.86464 587.392 0.00064 582.144 0.00064 575.616v-12.992a12.16 12.16 0 0 1 3.2-8.384 10.24 10.24 0 0 1 7.616-3.52z m0-365.568h78.848c5.952 0 10.752 5.248 10.752 11.776v13.12c0 6.528-4.8 11.776-10.752 11.776H10.81664C4.86464 221.76 0.00064 216.512 0.00064 209.984v-13.12c0-6.464 4.864-11.712 10.816-11.712z m0 182.848h78.848c5.952 0 10.752 5.312 10.752 11.84v13.056c0 6.528-4.8 11.776-10.752 11.776H10.81664C4.86464 404.608 0.00064 399.36 0.00064 392.896v-13.056c0-6.528 4.864-11.84 10.816-11.84z m0 365.504h78.848c5.952 0 10.752 5.312 10.752 11.84v13.056c0 6.528-4.8 11.776-10.752 11.776H10.81664C4.86464 770.112 0.00064 764.864 0.00064 758.4v-13.056c0-6.528 4.864-11.776 10.816-11.84z m0 0" p-id="1130"></path><path d="M954.62464 73.152h-61.12a9.088 9.088 0 0 1-8.832-8.192C880.70464 28.032 851.20064 0 815.74464 0H110.08064a76.16 76.16 0 0 0-55.424 24.128c-14.656 15.36-22.848 36.352-22.848 58.176v54.656c0 5.056 3.968 9.216 8.704 9.216h51.968c11.584 0 22.656 4.864 30.72 13.44A46.464 46.464 0 0 1 135.93664 192v27.392A35.84 35.84 0 0 1 101.18464 256H40.57664a8.256 8.256 0 0 0-6.208 2.624 9.792 9.792 0 0 0-2.56 6.656v54.592c0 5.056 3.968 9.28 8.704 9.28h51.968c11.584 0 22.656 4.8 30.72 13.44a46.848 46.848 0 0 1 12.736 32.384v18.112c0 12.16-4.544 23.872-12.736 32.448a42.24 42.24 0 0 1-30.72 13.44H40.57664a9.088 9.088 0 0 0-8.768 9.28v54.656c0 5.056 4.032 9.216 8.768 9.216h52.032c23.936 0 43.392 20.48 43.392 45.824v27.392a35.776 35.776 0 0 1-34.752 36.608H40.57664a9.024 9.024 0 0 0-8.768 9.216v54.72c0 5.056 4.032 9.28 8.768 9.28h52.032c23.936 0 43.392 20.48 43.392 45.824v27.136a35.712 35.712 0 0 1-34.752 36.608H40.57664a9.344 9.344 0 0 0-6.336 2.688 9.984 9.984 0 0 0-2.432 6.592v127.936c0 21.824 8.192 42.816 22.848 58.176 14.592 15.168 34.56 23.872 55.424 23.872h835.712c20.8 0 40.768-8.704 55.36-24.128 14.592-15.36 22.848-36.352 22.848-58.176V146.112c0-40.32-31.104-72.96-69.376-72.96zM528.70464 164.096c8.576-15.232 33.728-22.016 48.448-13.44l83.072 48.896c14.72 8.896 21.696 34.624 13.056 49.792l-261.888 466.048a8.704 8.704 0 0 1-11.968 3.392L270.08064 642.56a8.96 8.96 0 0 1-4.096-5.632 9.024 9.024 0 0 1 0.96-7.168l261.76-465.664z m-169.92 597.568l-101.248 41.216a8 8 0 0 1-7.488-0.896 9.792 9.792 0 0 1-3.904-7.04l-8.256-108.032a9.408 9.408 0 0 1 3.904-8.512 7.808 7.808 0 0 1 8.704-0.32l109.504 66.944c2.88 1.728 4.544 5.12 4.352 8.768a9.344 9.344 0 0 1-5.568 7.872z m595.84 152.32c0 40.384-2.112 73.152-69.44 73.152H135.93664c-34.368-0.064-63.552-26.624-68.608-62.464a9.6 9.6 0 0 1 1.92-7.424 9.344 9.344 0 0 1 6.784-3.264h730.752c20.8 0 40.704-8.64 55.424-24.064 14.592-15.424 22.784-36.352 22.784-58.176V119.04c0-2.432 1.024-4.8 2.624-6.592a8.512 8.512 0 0 1 6.336-2.624c34.048 0.384 60.48 5.376 60.48 73.024v731.136h0.192z m0 0" p-id="1131"></path></svg>