<svg t="1686106232497" class="icon" viewBox="0 0 1036 1024" version="1.1" xmlns="http://www.w3.org/2000/svg" p-id="1398" width="64" height="64"><path d="M577.432304 26.442532L991.465316 307.2A103.696203 103.696203 0 0 1 1036.962025 393.008608V920.303797a103.696203 103.696203 0 0 1-103.696202 103.696203H103.696203a103.696203 103.696203 0 0 1-103.696203-103.696203V393.125266A103.696203 103.696203 0 0 1 45.626329 307.2L461.162937 26.351797a103.696203 103.696203 0 0 1 116.269367 0.090735zM842.531646 596.253165c-85.899342 0-155.544304 69.644962-155.544304 155.544303s69.644962 155.544304 155.544304 155.544304 155.544304-69.644962 155.544303-155.544304-69.644962-155.544304-155.544303-155.544303zM268.236152 418.154937c-31.484759 34.893772-25.587038 85.277165-23.61681 104.64243-9.851139 15.48962-11.821367 34.867848-5.910684 50.383392 3.940456 9.695595 9.851139 17.446886 19.676355 23.240912 5.910684 25.211139 19.702278 48.465013 37.408405 67.830278 0 5.819949-1.970228 9.695595-3.927494 15.502583-36.838076 7.647595-170.995038 77.253671-175.116962 147.831898L116.658228 830.891747V842.531646h466.555139v-11.639899l0.077772-3.162734c-0.298127-68.750582-134.506937-138.395544-171.357974-146.030178-1.944304-5.806987-1.944304-9.695595-3.927494-15.502582 17.719089-19.378228 29.527494-42.645063 37.408405-67.830278 9.825215-3.862684 15.735899-13.558278 19.676354-23.240912 7.867949-17.446886 5.910684-34.893772-5.897721-50.383392 1.957266-19.378228 7.867949-71.692962-23.629772-104.629468-21.646582-21.335494-53.157266-32.949468-82.68476-31.005165-31.484759-1.944304-61.025215 7.738329-84.642025 29.060861z m510.574177 100.429772H609.629975l-1.892456 0.06481a27.699848 27.699848 0 0 0-25.79443 27.686886c0 13.960101 12.002835 26.598076 25.79443 27.673924l1.892456 0.06481h169.180354l1.905418-0.06481a27.699848 27.699848 0 0 0 25.820354-27.673924c0-14.608203-11.665823-27.751696-27.725772-27.751696z m56.890329-135.842025h-226.057721l-1.905418 0.077772a27.699848 27.699848 0 0 0-25.79443 27.686886c0 15.36 12.002835 26.714734 25.79443 27.673924l1.892456 0.06481h226.057721l1.905418-0.06481a27.699848 27.699848 0 0 0 25.820354-27.673924c0-14.608203-11.665823-27.751696-27.71281-27.751696z" p-id="1399"></path><path d="M943.505823 827.690127l-46.300355-45.937418a7.129114 7.129114 0 0 0-3.344202-1.91838 88.089924 88.089924 0 0 0 20.596658-56.657013c0-48.659443-39.274937-88.038076-87.817721-88.038075C778.11038 635.139241 738.835443 674.517873 738.835443 723.177316c0 48.646481 39.274937 88.012152 87.80476 88.012152 21.387342 0 40.882228-7.673519 56.203341-20.311493a9.954835 9.954835 0 0 0 2.073924 3.20162l46.300355 45.924456a8.943797 8.943797 0 0 0 12.443544 0 8.529013 8.529013 0 0 0-0.155544-12.313924zM823.088608 777.721519c-32.275443 0-58.329114-26.053671-58.329114-58.329114s26.053671-58.329114 58.329114-58.329114 58.329114 26.053671 58.329114 58.329114-26.053671 58.329114-58.329114 58.329114z" p-id="1400"></path></svg>