<svg t="1685689533101" class="icon" viewBox="0 0 1025 1024" version="1.1" xmlns="http://www.w3.org/2000/svg" p-id="1434" width="64" height="64"><path d="M988.288 872.608h-67.616V374.432a75.168 75.168 0 0 0-75.168-75.168h-258.56V124.608a75.168 75.168 0 0 0-75.168-75.168H172.384a75.168 75.168 0 0 0-75.168 75.168v748H37.472c-20.608 0-37.504 16.864-37.504 37.472s16.928 37.536 37.504 37.536h950.72c20.608 0 37.536-16.928 37.536-37.536a37.28 37.28 0 0 0-37.44-37.472z m-303.2-403.616c0-5.312 4.096-9.376 9.344-9.376h80.768c5.248 0 9.344 4.064 9.344 9.376v33.824a9.248 9.248 0 0 1-9.344 9.408h-80.768a9.248 9.248 0 0 1-9.344-9.408v-33.824z m0 197.344c0-5.312 4.096-9.408 9.344-9.408h80.768c5.248 0 9.344 4.096 9.344 9.408v33.824a9.248 9.248 0 0 1-9.344 9.376h-80.768a9.248 9.248 0 0 1-9.344-9.376v-33.824zM374.432 275.68c0-5.28 4.064-9.376 9.376-9.376h80.704c5.312 0 9.344 4.096 9.344 9.376v33.824a9.184 9.184 0 0 1-9.344 9.376h-80.704a9.216 9.216 0 0 1-9.376-9.376V275.68z m0 193.312c0-5.312 4.064-9.376 9.376-9.376h80.704c5.312 0 9.344 4.064 9.344 9.376v33.824a9.216 9.216 0 0 1-9.344 9.408h-80.704a9.248 9.248 0 0 1-9.376-9.408v-33.824z m0 197.344c0-5.312 4.064-9.408 9.376-9.408h80.704c5.312 0 9.344 4.096 9.344 9.408v33.824a9.216 9.216 0 0 1-9.344 9.376h-80.704a9.216 9.216 0 0 1-9.376-9.376v-33.824zM210.144 275.68a9.28 9.28 0 0 1 9.408-9.376h80.704c5.312 0 9.376 4.096 9.376 9.376v33.824a9.216 9.216 0 0 1-9.376 9.376H219.52a9.248 9.248 0 0 1-9.408-9.376V275.68z m0 193.312c0-5.312 4.096-9.376 9.408-9.376h80.704c5.312 0 9.376 4.064 9.376 9.376v33.824a9.248 9.248 0 0 1-9.376 9.408H219.52a9.28 9.28 0 0 1-9.408-9.408v-33.824z m0 197.344a9.28 9.28 0 0 1 9.408-9.408h80.704c5.312 0 9.376 4.096 9.376 9.408v33.824a9.216 9.216 0 0 1-9.376 9.376H219.52a9.28 9.28 0 0 1-9.408-9.376v-33.824z m0 0" p-id="1435"></path></svg>