<svg t="1685690245775" class="icon" viewBox="0 0 1024 1024" version="1.1" xmlns="http://www.w3.org/2000/svg" p-id="1341" width="64" height="64"><path d="M535.039635 0.000233c49.989784 0 90.763574 39.284337 93.207209 88.436303L628.363208 93.091078h209.407857c24.575983 0 44.683606 18.827624 46.475605 43.054516L884.363033 139.636501c0 15.057444-7.098177 28.462526-18.19926 36.957066L1023.999302 511.999884a186.181691 186.181691 0 1 1-372.363383 0l153.320623-325.81796H581.817785v651.635919h349.044126A93.183936 93.183936 0 0 1 1023.999302 930.908689v46.591968A46.591968 46.591968 0 0 1 977.337515 1023.999535H46.661786A46.452332 46.452332 0 0 1 0 977.500657V930.908689c0-51.432692 41.727972-93.090846 93.137391-93.090846H442.181517V186.181924H219.04276L372.363382 511.999884a186.181691 186.181691 0 0 1-180.363513 186.0886L186.181691 698.181575a186.181691 186.181691 0 0 1-186.181691-186.181691L157.835529 176.593567A46.359241 46.359241 0 0 1 139.636268 139.636501c0-25.716346 20.712713-46.545423 46.591969-46.545423H395.636094a93.090846 93.090846 0 0 1 93.323573-93.090845h46.079968zM186.181691 256.000058L69.818134 511.999884h232.727114L186.181691 256.000058z m651.63592 0l-116.363557 255.999826h232.727114l-116.363557-255.999826z" p-id="1342"></path></svg>