<svg t="1686106730999" class="icon" viewBox="0 0 1024 1024" version="1.1" xmlns="http://www.w3.org/2000/svg" p-id="1458" width="64" height="64"><path d="M878.262839 1023.812389h-742.251735a54.261161 54.261161 0 0 1-48.374337-85.998821l37.624484-53.749264A82.159589 82.159589 0 0 1 179.266464 862.564599h661.37189a56.564701 56.564701 0 0 1 48.374338 25.594887l37.624484 53.749264c25.594887 32.249558 0 80.623895-48.374337 80.623895z m0 0" p-id="1459"></path><path d="M754.639533 104.188084a346.042878 346.042878 0 0 0-483.999321-10.749852l-10.749853 10.749852a367.286634 367.286634 0 0 0 0 505.499027l247.502561 252.877488 247.246613-252.877488a367.286634 367.286634 0 0 0 0-505.499027z m-247.246613 365.750942a107.498527 107.498527 0 1 1 107.498527-107.498527 107.754476 107.754476 0 0 1-107.498527 107.498527z m0 0" p-id="1460"></path></svg>