<svg t="1686106481309" class="icon" viewBox="0 0 1024 1024" version="1.1" xmlns="http://www.w3.org/2000/svg" p-id="4900" width="64" height="64"><path d="M630.153846 1024a78.769231 78.769231 0 0 1-78.769231-78.769231V630.153846a78.769231 78.769231 0 0 1 78.769231-78.769231h315.076923a78.769231 78.769231 0 0 1 78.769231 78.769231v315.076923a78.769231 78.769231 0 0 1-78.769231 78.769231z m-551.384615 0a78.769231 78.769231 0 0 1-78.769231-78.769231V630.153846a78.769231 78.769231 0 0 1 78.769231-78.769231h315.076923a78.769231 78.769231 0 0 1 78.769231 78.769231v315.076923a78.769231 78.769231 0 0 1-78.769231 78.769231z m551.384615-551.384615a78.769231 78.769231 0 0 1-78.769231-78.769231V78.769231a78.769231 78.769231 0 0 1 78.769231-78.769231h315.076923a78.769231 78.769231 0 0 1 78.769231 78.769231v315.076923a78.769231 78.769231 0 0 1-78.769231 78.769231zM78.769231 472.615385a78.769231 78.769231 0 0 1-78.769231-78.769231V78.769231a78.769231 78.769231 0 0 1 78.769231-78.769231h315.076923a78.769231 78.769231 0 0 1 78.769231 78.769231v315.076923a78.769231 78.769231 0 0 1-78.769231 78.769231z" p-id="4901"></path></svg>