<svg t="1686121294546" class="icon" viewBox="0 0 1024 1024" version="1.1" xmlns="http://www.w3.org/2000/svg" p-id="1608" width="64" height="64"><path d="M846.506667 34.133333H177.493333C151.893333 34.133333 129.706667 56.32 129.706667 81.92v860.16c0 25.6 22.186667 47.786667 47.786666 47.786667h669.013334c25.6 0 47.786667-22.186667 47.786666-47.786667V81.92c0-25.6-22.186667-47.786667-47.786666-47.786667zM512 826.026667h-167.253333c-15.36 0-27.306667-11.946667-27.306667-27.306667s11.946667-27.306667 27.306667-27.306667H512c15.36 0 27.306667 11.946667 27.306667 27.306667s-11.946667 27.306667-27.306667 27.306667z m167.253333-143.36H344.746667c-15.36 0-27.306667-11.946667-27.306667-27.306667s11.946667-27.306667 27.306667-27.306667h334.506666c15.36 0 27.306667 11.946667 27.306667 27.306667s-11.946667 27.306667-27.306667 27.306667z m27.306667-394.24L494.933333 498.346667c-25.6 25.6-59.733333 39.253333-95.573333 39.253333s-68.266667-13.653333-95.573333-39.253333c-52.906667-52.906667-52.906667-138.24 0-189.44L482.986667 133.12c10.24-10.24 27.306667-10.24 37.546666 0s10.24 27.306667 0 37.546667L344.746667 348.16c-30.72 30.72-30.72 81.92 0 112.64 30.72 30.72 81.92 30.72 112.64 0l209.92-209.92c17.066667-17.066667 17.066667-46.08 0-63.146667s-46.08-17.066667-63.146667 0L394.24 397.653333c-3.413333 3.413333-3.413333 8.533333 0 11.946667 3.413333 3.413333 8.533333 3.413333 11.946667 0l177.493333-177.493333c10.24-10.24 27.306667-10.24 37.546667 0 10.24 10.24 10.24 27.306667 0 37.546666L445.44 448.853333c-23.893333 23.893333-64.853333 23.893333-88.746667 0-23.893333-23.893333-23.893333-64.853333 0-88.746666L566.613333 150.186667c18.773333-18.773333 42.666667-29.013333 69.973334-29.013334s51.2 10.24 69.973333 29.013334 29.013333 42.666667 29.013333 69.973333-10.24 49.493333-29.013333 68.266667z" p-id="1609"></path></svg>