<svg t="1685690635319" class="icon" viewBox="0 0 1024 1024" version="1.1" xmlns="http://www.w3.org/2000/svg" p-id="1370" width="64" height="64"><path d="M194.4 170.5h637.4c21.9 0 39.9-16.3 39.9-36.2 0-19.9-17.9-36.4-39.9-36.4H194.4c-21.9 0-39.9 16.3-39.9 36.2 0.1 20 18 36.4 39.9 36.4z m239.4 327.6h0.2-0.2z m460.9-254.8H129.3c-21.9 0-39.9 18.3-39.9 40.5v603.7c0 22.3 17.9 40.5 39.9 40.5h765.4c21.9 0 39.9-18.3 39.9-40.5V283.8c-0.1-22.4-18-40.5-39.9-40.5zM643.3 622.7c21.9 0 39.9 16.3 39.9 36.2 0 19.9-17.9 36.2-39.9 36.2h-95.5v87.7c0 22.3-16.1 40.5-35.7 40.5s-35.7-18.3-35.7-40.5v-87.6H381c-21.9 0-39.9-16.3-39.9-36.2 0-19.9 17.9-36.2 39.9-36.2h95.4v-52.2H381c-21.9 0-39.9-16.3-39.9-36.2 0-19.9 17.9-36.2 39.9-36.2h52.8l-19.6-37.9-23.1-44.9c-10.1-19.8-4.3-43.4 13.1-52.7 17.4-9.3 40-0.7 50.2 18.9l18.6 36c0.3 0.5 0.7 1.2 1 1.7l19.1 37h0.2l19.4 37.5 19.4-37.5h0.2l19.1-37c0.3-0.7 0.7-1.2 1-1.7l18.6-36c10.1-19.8 32.7-28.2 50.2-18.9 17.4 9.3 23.3 32.9 13.1 52.7l-23.1 44.9-19.6 37.9h-0.2 52c21.9 0 39.9 16.3 39.9 36.2 0 19.9-17.9 36.2-39.9 36.2h-95.7v52h95.6z m0 0" p-id="1371"></path></svg>